<?xml version="1.0" encoding="UTF-8"?>
<svg width="42px" height="51px" viewBox="0 0 42 51" version="1.1" xmlns="http://www.w3.org/2000/svg" xmlns:xlink="http://www.w3.org/1999/xlink">
    <title>Logo1</title>
    <defs>
        <polygon id="path-1" points="0 0 41.7968023 0 41.7968023 50 0 50"></polygon>
    </defs>
    <g id="Pages" stroke="none" stroke-width="1" fill="none" fill-rule="evenodd">
        <g id="5.-Private-Home" transform="translate(-779, -12)">
            <g id="Header-2-sticky" transform="translate(-1, 0)">
                <g id="Group-3" transform="translate(780, 12.537)">
                    <mask id="mask-2" fill="white">
                        <use xlink:href="#path-1"></use>
                    </mask>
                    <g id="Clip-2"></g>
                    <path d="M12.2223478,33.8243243 C12.3021426,33.811894 12.3817368,33.7996642 12.4615315,33.7872338 C15.1402688,26.7582801 17.2211471,19.5667296 18.3881952,12.0257263 C18.1530212,12.0920883 18.0136812,12.0926897 17.9288742,12.1610566 C16.6886475,13.1602952 15.2072322,13.9782914 14.2657346,15.2086941 C10.7200816,19.8422019 9.4770481,25.031065 11.1711825,30.7488188 C11.4785326,31.7867518 11.8698877,32.7998241 12.2223478,33.8243243 M22.3328218,42.0139105 C22.4148219,41.9461451 22.4966215,41.8781792 22.5784211,41.8102134 C22.2957312,39.4314081 22.1072713,37.0363631 21.7078967,34.6772057 C21.1034215,31.1066921 20.3225157,27.5662519 19.6749354,24.002555 C19.3333016,22.1215645 19.1153698,20.2179188 18.8390956,18.3082584 C18.7953889,18.3627915 18.7338387,18.410508 18.7123863,18.4722587 C18.6552469,18.6366599 18.6127432,18.8064743 18.569237,18.9752863 C17.1561885,24.468893 15.623849,29.9250083 13.5461785,35.2143165 C13.4465354,35.468136 13.537758,35.9060045 13.705367,36.1389731 C15.1200194,38.1051715 16.9370537,39.6250807 19.102338,40.6948915 C20.1424764,41.2087455 21.2537884,41.5788487 22.3328218,42.0139105 M25.3048749,32.0169135 C25.3708358,32.0215247 25.4367968,32.026136 25.5027578,32.0309477 C25.5773398,31.7825415 25.6561321,31.5353382 25.7255014,31.2855286 C27.4843938,24.9586884 29.3228805,18.6573103 31.8747081,12.592309 C32.0964492,12.0652227 31.9785615,11.7921563 31.4701207,11.6415889 C29.8257076,11.1546004 28.201143,10.5671668 26.526456,10.2269365 C25.2798137,9.97371854 23.9613962,9.81011929 22.6331547,10.2774598 C22.7331988,17.6390252 24.7555342,24.7355438 25.3048749,32.0169135 M23.7420609,0.0839833029 C23.0176931,2.71259826 22.3530712,5.29229384 22.6149102,8.04501166 C26.2167001,7.8908354 29.6212086,8.49511009 32.8140004,10.3360027 C32.9822109,10.0108091 33.120348,9.75478425 33.2486611,9.49394769 C34.4666335,7.01650165 35.7263077,4.54948105 37.7081442,2.58588904 C38.470204,1.83104689 39.4604205,1.28872339 40.3989108,0.738981783 C40.7429504,0.537490056 41.238159,0.594228522 41.7969226,0.51403281 C41.3943401,2.37758067 40.6240603,3.82350937 39.3924546,5.02604407 C39.3395255,5.07777031 39.2739655,5.13972149 39.2068016,5.15034743 C37.0902362,5.48596648 36.1561567,7.17248231 35.1320574,8.73910555 C34.7362916,9.3441822 34.4116994,9.99797774 34.0863053,10.6455581 C34.0169361,10.7832943 34.0845009,10.9895977 34.0889117,11.1644244 C34.2432885,11.0818228 34.4361591,11.0329034 34.5438219,10.9096025 C34.7563405,10.666008 34.9634459,10.4005602 35.0993777,10.1098508 C35.6938284,8.83854823 36.7919082,8.37120772 38.1662622,8.1807429 C38.3541207,9.16574674 38.5485953,10.1643838 38.7346493,11.1646249 C39.2238432,13.7936408 39.7046165,16.4242607 40.1984216,19.0524746 C40.4105392,20.1808283 40.293654,20.4500854 39.1598871,21.1708444 C38.0094796,17.7621256 36.2844698,14.7618035 33.1191451,12.6001281 C29.1504597,22.2121857 26.8612731,32.1831191 24.5686782,42.1588642 C28.4238866,42.9688409 34.9688592,41.8946194 39.2278529,33.9570483 C39.8640054,35.0976318 39.8640054,35.4524978 39.1548749,36.4812083 C36.4556877,40.395962 32.9627634,43.2082251 28.2151773,44.2050578 C27.0960461,44.4400313 25.9390224,44.5268431 24.7942287,44.5942075 C24.2613281,44.6254839 23.984252,44.7331466 23.8844083,45.3009322 C23.6546476,46.604714 23.3647401,47.8978699 23.0982898,49.195236 C23.0682164,49.3417937 23.0626027,49.5043905 22.991429,49.6286939 C22.9102309,49.7704398 22.7686855,49.8777015 22.6532036,50 C22.6056877,49.8536428 22.5150665,49.7066842 22.5170714,49.5609285 C22.5365189,48.1336453 22.5503526,46.7055601 22.6125043,45.2796804 C22.6363625,44.7327456 22.4422889,44.5334593 21.9097894,44.4779237 C18.1185371,44.0823584 14.6725273,42.7934128 11.6445377,40.4462848 C11.5493053,40.3725047 11.4364298,40.3215805 11.3413979,40.265644 C10.5318222,41.5321347 9.78640306,42.8072466 8.93392264,44.006373 C7.68828274,45.7590502 6.21669142,47.2958006 4.18974479,48.1609118 C3.09868213,48.6268489 1.95168295,48.9255779 0.757568796,48.6705556 C0.476883803,48.6106093 0.251132873,48.2930343 -8.01957121e-05,48.0941489 C0.242912812,47.9105007 0.471069614,47.7007889 0.734312039,47.5538303 C0.875656982,47.475038 1.07714871,47.4866664 1.25137389,47.4870674 C3.41505421,47.493483 5.06929127,46.4146502 6.31092138,44.8063252 C7.62031687,43.1101859 8.72300792,41.2530537 9.87762568,39.4418335 C9.98268207,39.2768308 9.89667217,38.8582092 9.74951303,38.6833826 C1.47030819,28.8479799 5.5436489,13.5486429 17.6413726,9.13306699 C18.2217891,8.92114982 18.4409238,8.66392207 18.5477846,8.0087231 C18.8360882,6.24221205 19.2406756,4.48793084 19.7232533,2.76352254 C19.9038941,2.11834803 20.3682273,1.51988753 20.8085018,0.987388002 C21.5471043,0.0944087455 22.4408855,-0.151190623 23.7420609,0.0839833029" id="Fill-1" fill="#00643A" mask="url(#mask-2)"></path>
                </g>
            </g>
        </g>
    </g>
</svg>